<?xml version="1.0" encoding="utf-8"?>
<!-- Generator: Adobe Illustrator 25.0.0, SVG Export Plug-In . SVG Version: 6.00 Build 0)  -->
<svg version="1.1" id="Layer_1" xmlns="http://www.w3.org/2000/svg" xmlns:xlink="http://www.w3.org/1999/xlink" x="0px" y="0px"
	 viewBox="0 0 2500 2500" style="enable-background:new 0 0 2500 2500;" xml:space="preserve">
<style type="text/css">
	.st0{fill-rule:evenodd;clip-rule:evenodd;fill:#FFFFFF;}
	
		.st1{fill-rule:evenodd;clip-rule:evenodd;fill:#FFFFFF;stroke:#020202;stroke-width:31.9186;stroke-linecap:round;stroke-linejoin:round;stroke-miterlimit:33.89;}
	.st2{fill-rule:evenodd;clip-rule:evenodd;fill:#409BFF;}
	
		.st3{fill-rule:evenodd;clip-rule:evenodd;fill:#FFFFFF;stroke:#0A0103;stroke-width:31.2571;stroke-linecap:round;stroke-linejoin:round;stroke-miterlimit:33.89;}
	
		.st4{fill-rule:evenodd;clip-rule:evenodd;fill:#FFFFFF;stroke:#020001;stroke-width:31.5036;stroke-linecap:round;stroke-linejoin:round;stroke-miterlimit:33.89;}
</style>
<path class="st0" d="M0,0h2500v2500H0V0z"/>
<path class="st1" d="M419.5,277.5h1660.7c60.2,0,109.5,45.2,109.5,100.8v1641.5c0,55.6-49.3,101.1-109.5,101.1H419.5
	c-59.8,0-109.1-45.5-109.1-101.1V378.2C310.4,322.6,359.7,277.5,419.5,277.5z"/>
<path class="st2" d="M558.5,403.9h1392.7c68.5,0,124.7,53.9,124.7,119.5v1333.2c0,66.1-56.2,120-124.7,120H558.5
	c-68.5,0-124.7-53.9-124.7-120V523.4C433.8,457.8,490,403.9,558.5,403.9z"/>
<path class="st3" d="M1453.3,1695c84.9-583.1,786.3-1635.8,786.3-1635.8c-427,123.3-841.2,992-841.2,992l-244.3-448.8l-232.3,165
	L1453.3,1695L1453.3,1695z"/>
<path class="st4" d="M783.5,1857.3c-55.8,18-99.6,24.8-130,19c-30.1-5-51.6-25.8-62.6-60c-10.1-56.7-13.9-97-11.2-120
	c4-47.4,24.4-78,61.9-90.2c8.3-2.7,21.1-5.9,37.2-10.2c16.4-3.5,27.4-6.1,35-8.5c11.6-3.8,20.8-3.9,27.7,0.3
	c7.1,5.1,12.1,11.8,15,21c2.2,6.7,3.8,14.5,4,23.6c-0.6,9.4,0.1,17.5,0.1,25.8l23.9-5.9c15.8-5.1,29.2-12.2,36.4-21
	c10.6-12.7,12.4-27.1,6.7-44.6c-10.3-31.7-48.7-73.8-116.1-125.8c-66.6-52.3-105.2-97.9-117.4-135.5
	c-22.2-68.5-9.4-137.2,40.2-208.6C685.4,1042,762,988.7,861.1,956.6c35-11.3,62.7-16.6,85.1-15.5c31.8,1.7,52.5,14.4,60.3,38.6
	l14.1,43.5c14.9,45.9,18.7,80.7,12.2,103.1c-10.2,31-42,55.1-95.3,72.3c-53.3,17.2-84.3,12.5-93.2-15.1l-1.9-5.8
	c-11.7,3.8-22.5,10-31.2,20.2c-13.7,14.6-17.7,30.6-12.3,47.3c15,26.5,38.1,52.3,67.5,77.8c26.5,22,52.7,44.3,78.6,66.8
	c29.4,28.3,50.8,57.4,63.5,85.6l7.6,23.4c23.5,72.7,20.2,139.2-8.5,198.4c-34.3,70.2-103.4,121.1-206.6,154.5L783.5,1857.3
	L783.5,1857.3L783.5,1857.3z"/>
</svg>
