<?xml version="1.0" encoding="utf-8"?>
<!-- Generator: Adobe Illustrator 25.0.0, SVG Export Plug-In . SVG Version: 6.00 Build 0)  -->
<svg version="1.1" id="Layer_1" xmlns="http://www.w3.org/2000/svg" xmlns:xlink="http://www.w3.org/1999/xlink" x="0px" y="0px"
	 viewBox="0 0 512 512" style="enable-background:new 0 0 512 512;" xml:space="preserve">
<style type="text/css">
	.st0{fill-rule:evenodd;clip-rule:evenodd;fill:#D9E4E8;}
	.st1{fill-rule:evenodd;clip-rule:evenodd;fill:#1E90FF;}
	.st2{opacity:0.14;}
	.st3{fill:#17292D;}
	.st4{fill:#141F38;}
</style>
<path class="st0" d="M448,166.4h-88.8c-28.3,57-97.4,80.3-154.4,52c-22.5-11.2-40.8-29.4-52-52H64c-28.3,0-51.2,22.9-51.2,51.2V448
	c0,28.3,22.9,51.2,51.2,51.2h384c28.3,0,51.2-22.9,51.2-51.2V217.6C499.2,189.3,476.3,166.4,448,166.4z"/>
<path class="st1" d="M256,217.6c-56.6,0-102.4-45.8-102.4-102.4S199.4,12.8,256,12.8s102.4,45.8,102.4,102.4l0,0
	C358.3,171.7,312.5,217.5,256,217.6z"/>
<g class="st2">
	<path class="st3" d="M19.3,171.9C7,183.9,0,200.4,0,217.6v9.2L217.6,384l12.1-12.1L19.3,171.9z"/>
</g>
<g class="st2">
	<path class="st3" d="M492.7,171.9l-210.4,200l12.1,12.1L512,226.8v-9.2C512,200.4,505,183.9,492.7,171.9z"/>
</g>
<path class="st4" d="M217.6,115.2c0-7.1,5.7-12.8,12.8-12.8l0,0h12.8V89.6c0-7.1,5.7-12.8,12.8-12.8c7.1,0,12.8,5.7,12.8,12.8v12.8
	h12.8c7.1,0,12.8,5.7,12.8,12.8s-5.7,12.8-12.8,12.8l0,0h-12.8v12.8c0,7.1-5.7,12.8-12.8,12.8c-7.1,0-12.8-5.7-12.8-12.8V128h-12.8
	C223.3,128,217.6,122.3,217.6,115.2z M512,217.6V448c-0.1,35.3-28.7,63.9-64,64H64c-35.3-0.1-63.9-28.7-64-64V217.6
	c0.1-35.3,28.7-63.9,64-64h83.4c-21.2-60,10.3-125.8,70.3-147s125.8,10.3,147,70.3c8.8,24.8,8.8,51.9,0,76.7H448
	C483.3,153.7,511.9,182.3,512,217.6z M482.6,201l-149,149l148,116.4c3.1-5.6,4.7-12,4.7-18.4V217.6
	C486.4,211.9,485.1,206.2,482.6,201z M166.4,115.2c0,49.5,40.1,89.6,89.6,89.6s89.6-40.1,89.6-89.6S305.5,25.6,256,25.6
	C206.5,25.6,166.4,65.7,166.4,115.2z M64,179.2c-5.7,0-11.4,1.3-16.5,3.8l172.3,172.3c20,20,52.4,20,72.4,0L464.5,183
	c-5.2-2.5-10.8-3.8-16.5-3.8h-96.2C316.4,232.1,244.9,246.3,192,211c-12.6-8.4-23.4-19.2-31.8-31.8H64z M178.4,350.1l-149-149
	c-2.5,5.2-3.8,10.8-3.8,16.5V448c0,6.4,1.6,12.8,4.7,18.4L178.4,350.1z M448,486.4c4.9,0,9.7-0.9,14.2-2.7L315.4,368.3l-5.1,5.1
	c-30,29.9-78.6,29.9-108.6,0l-5.1-5.1L49.8,483.7c4.5,1.8,9.3,2.7,14.2,2.7L448,486.4L448,486.4z"/>
</svg>
