<?xml version="1.0" encoding="utf-8"?>
<!-- Generator: Adobe Illustrator 25.0.0, SVG Export Plug-In . SVG Version: 6.00 Build 0)  -->
<svg version="1.1" id="Layer_1" xmlns="http://www.w3.org/2000/svg" xmlns:xlink="http://www.w3.org/1999/xlink" x="0px" y="0px"
	 viewBox="0 0 2500 2500" style="enable-background:new 0 0 2500 2500;" xml:space="preserve">
<style type="text/css">
	.st0{fill-rule:evenodd;clip-rule:evenodd;fill:#FFFFFF;}
	.st1{fill-rule:evenodd;clip-rule:evenodd;fill:#010202;}
	.st2{fill-rule:evenodd;clip-rule:evenodd;fill:#0881F9;}
	.st3{fill-rule:evenodd;clip-rule:evenodd;fill:#0081F9;}
</style>
<g>
	<path class="st0" d="M0,0h2500v2500H0V0z"/>
	<path class="st1" d="M1090.1,614.4c-0.2-3.9-43.5-75.3-145.6-76.4c-51.8-0.6-109.7,12.1-127.5,57.8c-30.8,80.7,104,82,189.6,108.1
		c222.6,67.6,238,171.6,212.4,323.9c-32.1,191-268,338.4-515.2,341.5c-241.4,3-378.2-148.9-381.6-152.8L532,1004.1
		c0,0,72.3,111.8,217,114.7c66.9,1.3,154-7,156.9-84.8c3.2-86.6-192.1-89.9-271.8-122.4C561.7,882.2,456.2,791,501.8,612.9
		c45.4-177,231.1-331.5,470.8-331.5c233.3,0,343.8,150.4,345.3,153.3L1090.1,614.4z M294.4,1399.4l1886.7-46.5l-292.9,265.6
		L224.7,1475.7L294.4,1399.4L294.4,1399.4z"/>
	<path class="st2" d="M2238,309.3c-9.3-14.6,15.9-22.6,25.2-27.9C2260.6,285.4,2251.3,305.3,2238,309.3z M2279.2,290.7l-2.7-9.3h6.7
		L2279.2,290.7z M2295.1,316c-4-11.9,6.6-18.6,13.3-25.2C2317.7,298.7,2304.4,312,2295.1,316z M2244.7,477.9c0,4,1.3,8-2.7,10.6
		v-10.6H2244.7z M2215.4,520.4l6.6-13.3l-2.6,9.3L2215.4,520.4L2215.4,520.4z M2190.2,557.6c-1.3-2.7,0-17.3,9.3-21.2
		C2200.9,545.7,2191.6,549.6,2190.2,557.6z M2126.5,647.9c0,2.7,1.3,6.6-2.7,9.3v-9.3H2126.5z M1957.9,746.2v6.6h-18.6
		C1943.3,740.8,1952.6,720.9,1957.9,746.2z M2037.6,759.4c-2.7,1.3-5.3,6.6-9.3,5.3c-12-10.6,12-6.6,6.6-18.6
		C2040.2,746.2,2036.2,754.1,2037.6,759.4z M1955.2,889.5h-4c-8-8,2.7-14.6,4-22.6C1952.6,871,1957.9,884.2,1955.2,889.5z M1926,940
		c-1.3,14.6-10.6,30.5-25.2,31.9l2.7,4c-15.9,2.7,0-8-9.3-13.3C1906.1,953.3,1908.7,925.4,1926,940z M1530.3,1035.6
		c1.3,6.6,0,13.3-5.3,15.9l-22.6-18.6C1511.7,1025,1521,1035.6,1530.3,1035.6z M1894.1,1042.3c-6.6,5.3-9.3,11.9-9.3,19.9
		c-9.3-9.3,1.3-17.3,2.7-26.5L1894.1,1042.3L1894.1,1042.3z M1862.3,1064.8c-12,1.3-17.3,26.6-31.9,13.3c-4-2.7-2.7-6.6-2.7-10.6
		C1837.1,1063.5,1864.9,1042.3,1862.3,1064.8z M1878.2,1087.4c-12,4-21.3-19.9-2.7-22.6L1878.2,1087.4z M1801.2,1226.8l-2.7-2.7
		l9.3-9.3C1810.5,1220.2,1805.2,1224.2,1801.2,1226.8L1801.2,1226.8z M1693.6,1511c-17.2,0,5.3-10.6-6.6-15.9l9.3-9.3
		C1702.9,1492.4,1699,1504.3,1693.6,1511z"/>
	<path class="st0" d="M2235.4,242.9c4,8-6.6,8-9.3,11.9C2228.8,250.9,2227.4,241.6,2235.4,242.9z M2050.8,504.5l-4-19.9l4,9.3V504.5
		z M2034.9,643.9c-4,6.6-10.6,2.7-15.9,4l9.3-15.9C2030.9,634.6,2036.2,638.6,2034.9,643.9L2034.9,643.9z M2003,641.3h2.7v9.3h-2.7
		V641.3z M2003,654.5h2.7v9.3h-2.7V654.5z M2210.2,338.5c-15.9,4-6.6,27.9-26.6,22.6c9.3-10.6-5.3-33.2,13.3-35.8
		C2204.8,327.9,2206.2,330.6,2210.2,338.5z M2126.5,389l13.3-11.9c-8,18.6-15.9,37.2-38.5,41.2l-2.7-4c8-1.3,18.6-5.3,21.3-15.9
		c-2.7-2.6-6.7-8-12-5.3l12-15.9C2118.5,382.3,2123.9,385,2126.5,389z M2078.7,500.5v9.3h-6.6v-12
		C2076,496.5,2077.4,499.2,2078.7,500.5z"/>
	<path class="st3" d="M1830.4,1151.1c-10.6,13.3-2.7,26.6-18.6,34.5l9.3,9.3C1822.4,1180.3,1846.3,1165.7,1830.4,1151.1
		L1830.4,1151.1z"/>
	<path class="st2" d="M2307.8,164.1l-7.1,5.5c-27.1-2.8,10-19.4,0-29.2l-47.1,45.8l-7.1-5.5c-2.9-1.4-5.7,1.4-7.1,2.8
		c4.3,4.2,14.3,4.2,10,13.9c-1.4,1.4-2.8,4.2-7.1,2.8c-1.4-1.4-4.3-4.2-2.8-6.9c-47.1,5.6-35.7,70.8-85.6,80.6
		c-68.5,77.8-114.2,155.6-181.2,233.3c-119.9,169.5-234,343.1-335.4,516.7c-64.2,98.6-101.3,212.5-178.4,300
		c1.4-23.6-8.5-48.6,10-70.8c-7.1-22.2-14.3-52.8-7.1-72.2c-14.3-33.3,31.4-69.4-12.9-87.5c12.9-25,5.7-52.8-7.1-69.5h2.9
		c1.4-13.9,8.6-41.7,24.3-30.5c-2.9-5.6-10-5.6-14.3-9.7c-32.8,27.8-44.2-40.3-64.2-47.2c-2.8-9.7,4.3-16.7,7.1-26.4
		c-32.8-5.5-51.4-34.7-82.8-33.3v9.7c-32.8-1.4-5.7,25-14.3,40.3l-30,4.2c-45.7,44.4,1.4,115.3-10,166.7c10,30.6,4.3,59.7-4.3,93.1
		c15.7,50-2.8,106.9,17.1,150c-15.7,66.7,2.9,144.4-2.9,219.5c-4.3,33.3-8.5,81.9,2.9,116.7l-10,193.1
		c20,73.6-31.4,188.9,44.2,237.5c32.8,16.7,51.4-18.1,75.6-30.6c37.1-34.7,42.8-98.6,92.8-123.6c30-91.7,61.4-186.1,105.6-269.5
		c15.7-41.7,38.5-87.5,44.2-126.4c15.7-16.7,0-34.7,11.4-50l12.9,12.5c0-11.1,18.5-20.8,7.1-29.2c-15.7-2.8-14.3-22.2-14.3-30.6
		c2.9-26.4,28.5-22.2,38.5-43.1l2.9,2.8c-8.5,13.9-11.4,33.3-10,47.2c22.8,4.2,14.3-23.6,31.4-26.4l-11.4-9.7l17.1-4.2
		c-7.1-19.5,7.1-32,11.4-52.8c18.6-19.5-7.1-33.3,17.1-47.2c-2.9-12.5,4.3-19.5,0-33.3c10-11.1,4.3-40.3,30-33.3
		c-11.4-19.4,5.7-36.1,21.4-50l-7.1-19.5c4.3-18.1,15.7-43,30-47.2c-5.7-16.7-12.9-29.2-20-50c-1.4-22.2,14.3-36.1,27.1-52.8
		c12.8-4.2,18.5,6.9,27.1,9.7c-8.6-19.4,34.2-18.1,21.4-43.1c-28.5-45.8,35.7-70.8,37.1-116.7c-25.7-27.8,27.1-33.3,24.3-50l-10-4.2
		c-2.9-5.6,2.9-8.3,7.1-12.5c7.1-1.4,12.9,0,17.1,6.9c-2.9-15.3,1.4-36.1,10-50c22.8-4.2,22.8-31.9,47.1-37.5c-2.8,0-7.1,1.4-10-2.8
		c1.4-4.2-2.9-11.1,4.3-13.9c7.1-4.2,10,6.9,12.9,6.9l24.3-47.2c-24.3-27.8,15.7-1.4,20-22.2c-4.3-8.3-12.8-11.1-20-13.9
		c42.8-22.2-25.7-38.9-10-66.7c4.3-11.1,18.5-25,29.9-16.7c-12.8,15.3-5.7,36.1,4.3,33.3c0-16.7,11.4,5.5,17.1-6.9l-17.1-9.7
		c20,11.1,24.3-18.1,44.2-19.4l7.1,12.5c14.3-15.3,0-36.1,24.3-43.1l-14.3-2.8c1.4-5.6,2.9-9.7,7.1-13.9l-24.3-13.9
		c4.3-38.9,44.2-70.8,48.5-102.8c21.4,2.8,5.7,25,12.9,36.1l14.3-16.7l-14.3-12.5c-1.4-9.7-12.9-20.8-2.9-30.5
		c11.4-5.6,5.7,12.5,17.1,9.7c1.4-4.2-2.9-9.7,2.9-12.5l4.3,2.8c5.7,2.8,8.5-2.8,12.8-6.9l4.3,13.9c7.1-2.8,18.5-9.7,17.1-19.4
		l-11.4-4.2c1.4-4.2-2.8-11.1,4.3-12.5c4.3-16.7,34.2-31.9,12.8-50c17.1-16.7,8.6-45.8,34.2-54.2l7.1,6.9l14.3-16.7l-7.1-6.9
		c11.4-11.1,10-38.9,34.2-33.3C2307.8,182.2,2329.2,172.5,2307.8,164.1L2307.8,164.1z M1402.8,1038.1l24-44.5l13.9,38L1402.8,1038.1
		L1402.8,1038.1z M1485.8,1807.3c-5.7-15.3,6-40.3,11.7-54.1c21.4-2.8,1.2,23.6,15.4,30.5C1505.8,1792,1511.5,1814,1485.8,1807.3z
		 M1534.4,1717l-31.7-3.6c-21.4-18.1,43.8-33,36.7-57.9l22.3-7.6C1563.1,1672.9,1524.4,1693.4,1534.4,1717L1534.4,1717z
		 M1969.1,721.2l-93.7,43.4c4.3-12.5,67-26.8,72.7-0.4L1969.1,721.2z M2023.8,507.2c4.3,22.2-17.6,63.9-31.9,77.8
		c-18.5-27.8,18.4-49.9,24.7-75l10-19.5c7.1,5.6,14.3,18.1,14.3,29.2C2035.3,515.5,2031,507.2,2023.8,507.2L2023.8,507.2z
		 M2078.1,433.6c27.6-3.2-27.1,55.6-30,63.9C2042.4,486.4,2070.9,443.3,2078.1,433.6z M2082.4,547.5c5.7,1.4,1.4,8.3,2.9,12.5
		c9.3,3.3-10,6.5-16.1,3l-1,1.2c-0.6-0.8-1.2-1.7-1.6-2.6c-1.9-0.9-14.7-5.3-16.5-5.3c-14.3-19.4,38.1-18.5,28.1-42.1l7.1-4.2
		c9.5,15.9-27.6,34.3-18.8,51.6c0.9,0.4,1.7,0.9,2.6,1.4L2082.4,547.5l20.6-106.3c7.1-9.7,23.7-36.8,36.5-38.2
		c-16.4,72,9.5-0.2-36.5,38.2L2082.4,547.5L2082.4,547.5z"/>
</g>
</svg>
