<?xml version="1.0" encoding="utf-8"?>
<!-- Generator: Adobe Illustrator 25.0.0, SVG Export Plug-In . SVG Version: 6.00 Build 0)  -->
<svg version="1.1" id="Layer_1" xmlns="http://www.w3.org/2000/svg" xmlns:xlink="http://www.w3.org/1999/xlink" x="0px" y="0px"
	 viewBox="0 0 400 400" style="enable-background:new 0 0 400 400;" xml:space="preserve">
<style type="text/css">
	.st0{fill:#030403;stroke:#F4F2F3;stroke-miterlimit:10;}
	.st1{fill:#768AC5;stroke:#000000;stroke-miterlimit:10;}
	.st2{fill:#F7F8F9;stroke:#000000;stroke-miterlimit:10;}
	.st3{fill:#F9F9FA;stroke:#FFFFFF;stroke-miterlimit:10;}
	.st4{fill:#6989C6;stroke:#000000;stroke-miterlimit:10;}
	.st5{fill:#45C4D8;stroke:#000000;stroke-miterlimit:10;}
	.st6{fill:#F9F9FA;stroke:#000000;stroke-miterlimit:10;}
	.st7{fill:#F9F9FA;stroke:#040407;stroke-miterlimit:10;}
</style>
<path class="st0" d="M200,6.2C95,6.2,10,92.9,10,199.9c0,59.5,26.3,112.8,67.8,148.3c26,22.3,58,37.6,93.1,43.1
	c13.8,0.3,27.8,1,41.6,1.8c99.1-6.6,177.5-90.6,177.5-193.2C390,92.9,305,6.2,200,6.2z"/>
<path class="st1" d="M605.8,124.9"/>
<path class="st2" d="M476.2,155.6"/>
<path class="st3" d="M292.8,114.9c-22.7,14.7-42.4,81.3-42.4,81.3S196,88.9,183.3,65c-3.8-7.1-19.1,9.3-38.8,35.9
	c-25,33.9-36,52.2-36,52.2C92,182,67.4,222.2,28,282.5c3.6,6.7,7.2,13.5,10.8,20.2l17.4,24l13.4,14.2l10.9,9.7l16.5,12.2l14.5,8.6
	l17.9,8.4l14,5l14.6,4l12.9,2.4c13.6,0.3,27.3,1,40.9,1.8l24.1-3l15.5-3.7l14.4-4.8l17.3-7.6l20-11.6l16-11.8l19.1-18.1l15.8-19.6
	l13.2-21.4l9.8-21.6C377.2,270.1,315.5,100.3,292.8,114.9z"/>
<path class="st4" d="M244.5,184.8"/>
<path class="st5" d="M209.9,391.4c26.4-25.8,61.6-73.7,59.5-90.9c-3-23.9-47.6-49.8-54-61.3c-4.7-8.3,24.9-30.5,33.9-46.6
	c1.4-2.6-0.9-4.1-2.7-7.3c-2.6-4.7-5.3-10.8-5.3-10.8c4.7,9-55.3,53.8-55.7,64.6c-0.4,11.6,44.8,48,55.7,62.5
	c10.9,14.5-31.9,60.4-55.7,71.5c-9.2,4.3-13.8,10.5-15.1,16.5C183.6,390,196.8,390.6,209.9,391.4z"/>
<path class="st4" d="M476.2,270.1"/>
<path class="st5" d="M249.1,193.3"/>
<path class="st5" d="M241.9,180.6"/>
<path class="st5" d="M265.8,191.5"/>
<path class="st5" d="M167.9,376.5"/>
<path class="st5" d="M264,216.2"/>
<path class="st5" d="M159,307.9"/>
<path class="st5" d="M137.8,322"/>
<path class="st6" d="M421.4,381.6"/>
<polygon class="st7" points="110,150.7 116.9,181.9 129.8,150.7 133.4,193.3 158.5,134.9 164.5,173.3 175.2,142.2 185.5,184.8 
	200,134.9 207.1,195.8 214.6,162.1 222.4,181.9 224.8,145.9 186.9,72 183.5,65.4 182.9,64.4 182.2,63.8 181.4,63.5 180.4,63.4 
	179.2,63.6 176.9,64.7 173.3,67.2 168.4,71.8 165.5,74.8 157.3,84.7 149,94.9 145.5,99.6 131.8,118.5 123.1,131.5 119.2,136.6 "/>
<polygon class="st7" points="265.8,154.8 269.5,180.6 276.8,161.1 285.1,191.5 291.6,161.1 296.1,174.6 302.5,154.8 310.2,180.6 
	312.8,167.5 319.9,187.4 320.6,163.2 325.2,171.1 325.2,149.7 320.5,141.1 316.4,134.2 311.8,127.5 307.4,121.9 304.7,118.9 
	301.1,116 298,114.4 296.1,114 294.4,114 292.8,114.9 290.4,116.7 287.6,119.2 285.2,121.8 283.5,123.8 280.7,127.5 279,129.9 
	276.2,134.4 273,140.1 270.3,145.2 268.5,148.8 "/>
<g>
	<g>
		<path d="M448.4,256.8c3.2,0,3.2-5,0-5C445.2,251.8,445.2,256.8,448.4,256.8L448.4,256.8z"/>
	</g>
</g>
</svg>
