<?xml version="1.0" encoding="utf-8"?>
<!-- Generator: Adobe Illustrator 25.0.0, SVG Export Plug-In . SVG Version: 6.00 Build 0)  -->
<svg version="1.1" id="Layer_1" xmlns="http://www.w3.org/2000/svg" xmlns:xlink="http://www.w3.org/1999/xlink" x="0px" y="0px"
	 viewBox="0 0 1280 1280" style="enable-background:new 0 0 1280 1280;" xml:space="preserve">
<style type="text/css">
	.st0{fill:none;}
	.st1{fill:url(#SVGID_1_);}
	.st2{fill:url(#SVGID_2_);}
	.st3{fill:#6087C5;}
	.st4{fill:url(#SVGID_3_);}
	.st5{fill:url(#SVGID_4_);}
	.st6{fill:url(#SVGID_5_);}
	.st7{fill:url(#SVGID_6_);}
	.st8{fill:url(#SVGID_7_);}
</style>
<rect x="1244" y="1076.6" class="st0" width="1.9" height="0"/>
<linearGradient id="SVGID_1_" gradientUnits="userSpaceOnUse" x1="42.4316" y1="654.0975" x2="696.9783" y2="654.0975">
	<stop  offset="0" style="stop-color:#21409A"/>
	<stop  offset="3.532380e-02" style="stop-color:#2C4395"/>
	<stop  offset="0.1918" style="stop-color:#494E86"/>
	<stop  offset="0.3467" style="stop-color:#4F5074"/>
	<stop  offset="0.4963" style="stop-color:#4C4C62"/>
	<stop  offset="0.6394" style="stop-color:#42424D"/>
	<stop  offset="0.7744" style="stop-color:#313136"/>
	<stop  offset="0.8981" style="stop-color:#131314"/>
	<stop  offset="1" style="stop-color:#000000"/>
</linearGradient>
<path class="st1" d="M697,484.6l-131-179L374.3,56.4L42.4,516l382.7,266.3L42.4,793.7c0,0,375.6,165.9,363.6,458
	c0.4,0.1,0.2,0,0.6,0.1c83.6-207.8,212.8-409.2,194.6-472.4C582.9,716.3,217.6,533.9,190,494.6s170.9-195.8,213.1-192.4
	C445.2,305.5,697,484.6,697,484.6z"/>
<linearGradient id="SVGID_2_" gradientUnits="userSpaceOnUse" x1="71.2941" y1="626.553" x2="735.6902" y2="626.553">
	<stop  offset="0" style="stop-color:#21409A"/>
	<stop  offset="3.532380e-02" style="stop-color:#2C4395"/>
	<stop  offset="0.1918" style="stop-color:#494E86"/>
	<stop  offset="0.3467" style="stop-color:#4F5074"/>
	<stop  offset="0.4963" style="stop-color:#4C4C62"/>
	<stop  offset="0.6394" style="stop-color:#42424D"/>
	<stop  offset="0.7744" style="stop-color:#313136"/>
	<stop  offset="0.8981" style="stop-color:#131314"/>
	<stop  offset="1" style="stop-color:#000000"/>
</linearGradient>
<path class="st2" d="M735.7,457l-133-179L408.2,28.8L71.3,488.4l388.4,266.3L71.3,766.2c0,0,381.3,165.9,369.1,458
	c0.4,0.1,0.2,0,0.6,0.1c84.9-207.8,216-409.2,197.5-472.4C619.9,688.7,249.1,506.4,221,467s173.5-195.8,216.3-192.4
	C480.2,278,735.7,457,735.7,457z"/>
<path class="st3" d="M1173.3,617.6"/>
<linearGradient id="SVGID_3_" gradientUnits="userSpaceOnUse" x1="1496.7473" y1="358.3895" x2="1496.7473" y2="358.3895">
	<stop  offset="0" style="stop-color:#21409A"/>
	<stop  offset="3.532380e-02" style="stop-color:#2C4395"/>
	<stop  offset="0.1918" style="stop-color:#494E86"/>
	<stop  offset="0.3467" style="stop-color:#4F5074"/>
	<stop  offset="0.4963" style="stop-color:#4C4C62"/>
	<stop  offset="0.6394" style="stop-color:#42424D"/>
	<stop  offset="0.7744" style="stop-color:#313136"/>
	<stop  offset="0.8981" style="stop-color:#131314"/>
	<stop  offset="1" style="stop-color:#000000"/>
</linearGradient>
<path class="st4" d="M1496.7,358.4"/>
<linearGradient id="SVGID_4_" gradientUnits="userSpaceOnUse" x1="483.4522" y1="806.1508" x2="1244.0359" y2="806.1508">
	<stop  offset="0.5086" style="stop-color:#6087C5"/>
	<stop  offset="0.5096" style="stop-color:#6087C5"/>
	<stop  offset="0.6482" style="stop-color:#5172B8"/>
	<stop  offset="0.7798" style="stop-color:#4664AF"/>
	<stop  offset="0.9005" style="stop-color:#405CAA"/>
	<stop  offset="1" style="stop-color:#3D59A8"/>
</linearGradient>
<polygon class="st5" points="483.5,378.9 865.9,1233.4 1244,378.9 863.7,806.2 "/>
<linearGradient id="SVGID_5_" gradientUnits="userSpaceOnUse" x1="495.7559" y1="824.5591" x2="1244.0359" y2="824.5591">
	<stop  offset="0.5086" style="stop-color:#6087C5"/>
	<stop  offset="0.5096" style="stop-color:#6087C5"/>
	<stop  offset="0.6482" style="stop-color:#5172B8"/>
	<stop  offset="0.7798" style="stop-color:#4664AF"/>
	<stop  offset="0.9005" style="stop-color:#405CAA"/>
	<stop  offset="1" style="stop-color:#3D59A8"/>
</linearGradient>
<polygon class="st6" points="495.8,397.3 872,1251.8 1244,397.3 869.9,824.6 "/>
<linearGradient id="SVGID_6_" gradientUnits="userSpaceOnUse" x1="1725.6316" y1="746.4316" x2="1725.6316" y2="746.4316">
	<stop  offset="0" style="stop-color:#21409A"/>
	<stop  offset="3.532380e-02" style="stop-color:#2C4395"/>
	<stop  offset="0.1918" style="stop-color:#494E86"/>
	<stop  offset="0.3467" style="stop-color:#4F5074"/>
	<stop  offset="0.4963" style="stop-color:#4C4C62"/>
	<stop  offset="0.6394" style="stop-color:#42424D"/>
	<stop  offset="0.7744" style="stop-color:#313136"/>
	<stop  offset="0.8981" style="stop-color:#131314"/>
	<stop  offset="1" style="stop-color:#000000"/>
</linearGradient>
<path class="st7" d="M1725.6,746.4"/>
<path d="M1495.5,772.1"/>
<linearGradient id="SVGID_7_" gradientUnits="userSpaceOnUse" x1="1481.2041" y1="951.7143" x2="1481.2041" y2="951.7143">
	<stop  offset="0" style="stop-color:#21409A"/>
	<stop  offset="3.532380e-02" style="stop-color:#2C4395"/>
	<stop  offset="0.1918" style="stop-color:#494E86"/>
	<stop  offset="0.3467" style="stop-color:#4F5074"/>
	<stop  offset="0.4963" style="stop-color:#4C4C62"/>
	<stop  offset="0.6394" style="stop-color:#42424D"/>
	<stop  offset="0.7744" style="stop-color:#313136"/>
	<stop  offset="0.8981" style="stop-color:#131314"/>
	<stop  offset="1" style="stop-color:#000000"/>
</linearGradient>
<path class="st8" d="M1481.2,951.7"/>
</svg>
