<?xml version="1.0" encoding="utf-8"?>
<!-- Generator: Adobe Illustrator 25.0.0, SVG Export Plug-In . SVG Version: 6.00 Build 0)  -->
<svg version="1.1" id="Layer_1" xmlns="http://www.w3.org/2000/svg" xmlns:xlink="http://www.w3.org/1999/xlink" x="0px" y="0px"
	 viewBox="0 0 2500 2500" style="enable-background:new 0 0 2500 2500;" xml:space="preserve">
<style type="text/css">
	.st0{fill-rule:evenodd;clip-rule:evenodd;fill:#FFFFFF;}
	.st1{fill-rule:evenodd;clip-rule:evenodd;fill:#020202;}
	.st2{fill-rule:evenodd;clip-rule:evenodd;fill:#4B90FF;}
	.st3{fill-rule:evenodd;clip-rule:evenodd;fill:#4B90FF;stroke:#4B90FF;stroke-miterlimit:10;}
</style>
<g>
	<path class="st0" d="M27.3,30.3h2500v2500H27.3V30.3z"/>
	<path class="st1" d="M1129,745.1c-0.2-3.9-43.5-75.3-145.6-76.4c-51.8-0.6-109.7,12.1-127.5,57.8c-30.8,80.7,104,82,189.6,108.1
		c222.6,67.6,238,171.6,212.4,323.9c-32.1,191-268,338.4-515.2,341.5c-241.4,3-378.2-148.9-381.6-152.8l209.9-212.4
		c0,0,72.3,111.8,217,114.7c66.9,1.3,154-7,156.9-84.8c3.2-86.6-192.1-89.9-271.8-122.4c-72.4-29.4-177.9-120.7-132.2-298.7
		c45.4-177,231.1-331.5,470.8-331.5c233.3,0,343.8,150.4,345.3,153.3L1129,745.1z M319.1,1550.9l1795.8-46.5L1836.1,1770
		L252.7,1627.3L319.1,1550.9L319.1,1550.9z"/>
	<path class="st2" d="M2238,309.3c-9.3-14.6,15.9-22.6,25.2-27.9C2260.6,285.4,2251.3,305.3,2238,309.3z M2279.2,290.7l-2.7-9.3h6.7
		L2279.2,290.7z M2295.1,316c-4-11.9,6.6-18.6,13.3-25.2C2317.7,298.7,2304.4,312,2295.1,316z M2244.7,477.9c0,4,1.3,8-2.7,10.6
		v-10.6H2244.7z M2215.4,520.4l6.6-13.3l-2.6,9.3L2215.4,520.4L2215.4,520.4z M2190.2,557.6c-1.3-2.7,0-17.3,9.3-21.2
		C2200.9,545.7,2191.6,549.6,2190.2,557.6z M2126.5,647.9c0,2.7,1.3,6.6-2.7,9.3v-9.3H2126.5z M1957.9,746.2v6.6h-18.6
		C1943.3,740.8,1952.6,720.9,1957.9,746.2z M2037.6,759.4c-2.7,1.3-5.3,6.6-9.3,5.3c-12-10.6,12-6.6,6.6-18.6
		C2040.2,746.2,2036.2,754.1,2037.6,759.4z M1955.2,889.5h-4c-8-8,2.7-14.6,4-22.6C1952.6,871,1957.9,884.2,1955.2,889.5z M1926,940
		c-1.3,14.6-10.6,30.5-25.2,31.9l2.7,4c-15.9,2.7,0-8-9.3-13.3C1906.1,953.3,1908.7,925.4,1926,940z M1530.3,1035.6
		c1.3,6.6,0,13.3-5.3,15.9l-22.6-18.6C1511.7,1025,1521,1035.6,1530.3,1035.6z M1894.1,1042.3c-6.6,5.3-9.3,11.9-9.3,19.9
		c-9.3-9.3,1.3-17.3,2.7-26.5L1894.1,1042.3L1894.1,1042.3z M1862.3,1064.8c-12,1.3-17.3,26.6-31.9,13.3c-4-2.7-2.7-6.6-2.7-10.6
		C1837.1,1063.5,1864.9,1042.3,1862.3,1064.8z M1878.2,1087.4c-12,4-21.3-19.9-2.7-22.6L1878.2,1087.4z M1801.2,1226.8l-2.7-2.7
		l9.3-9.3C1810.5,1220.2,1805.2,1224.2,1801.2,1226.8L1801.2,1226.8z M1693.6,1511c-17.2,0,5.3-10.6-6.6-15.9l9.3-9.3
		C1702.9,1492.4,1699,1504.3,1693.6,1511z"/>
	<path class="st0" d="M2235.4,242.9c4,8-6.6,8-9.3,11.9C2228.8,250.9,2227.4,241.6,2235.4,242.9z M2050.8,504.5l-4-19.9l4,9.3V504.5
		z M2034.9,643.9c-4,6.6-10.6,2.7-15.9,4l9.3-15.9C2030.9,634.6,2036.2,638.6,2034.9,643.9L2034.9,643.9z M2003,641.3h2.7v9.3h-2.7
		V641.3z M2003,654.5h2.7v9.3h-2.7V654.5z M2210.2,338.5c-15.9,4-6.6,27.9-26.6,22.6c9.3-10.6-5.3-33.2,13.3-35.8
		C2204.8,327.9,2206.2,330.6,2210.2,338.5z M2126.5,389l13.3-11.9c-8,18.6-15.9,37.2-38.5,41.2l-2.7-4c8-1.3,18.6-5.3,21.3-15.9
		c-2.7-2.6-6.7-8-12-5.3l12-15.9C2118.5,382.3,2123.9,385,2126.5,389z M2078.7,500.5v9.3h-6.6v-12
		C2076,496.5,2077.4,499.2,2078.7,500.5z"/>
	<path class="st3" d="M1830.4,1151.1c-10.6,13.3-2.7,26.6-18.6,34.5l9.3,9.3C1822.4,1180.3,1846.3,1165.7,1830.4,1151.1
		L1830.4,1151.1z"/>
	<path class="st2" d="M2292.5,185.8l-6.6,5.3c-25.2-2.6,9.3-18.6,0-27.9l-43.8,43.8l-6.6-5.3c-2.7-1.3-5.3,1.3-6.6,2.7
		c4,4,13.3,4,9.3,13.3c-1.3,1.3-2.6,4-6.6,2.7c-1.3-1.3-4-4-2.6-6.6c-43.8,5.3-33.2,67.7-79.7,77
		c-63.7,74.3-106.2,148.7-168.6,223.1c-111.5,162-217.7,328-312,493.9c-59.8,94.3-94.3,203.2-166,286.8c1.3-22.6-8-46.5,9.3-67.7
		c-6.6-21.2-13.3-50.5-6.6-69.1c-13.3-31.9,29.2-66.4-12-83.6c12-23.9,5.3-50.5-6.6-66.4h2.7c1.3-13.3,8-39.8,22.6-29.2
		c-2.7-5.3-9.3-5.3-13.3-9.3c-30.5,26.5-41.2-38.5-59.8-45.1c-2.6-9.3,4-15.9,6.6-25.2c-30.5-5.3-47.8-33.2-77-31.9v9.3
		c-30.5-1.3-5.3,23.9-13.3,38.5l-27.9,4c-42.5,42.5,1.3,110.2-9.3,159.3c9.3,29.2,4,57.1-4,89c14.6,47.8-2.6,102.2,15.9,143.4
		c-14.6,63.7,2.7,138.1-2.7,209.8c-4,31.9-8,78.3,2.7,111.5l-9.3,184.5c18.6,70.4-29.2,180.6,41.2,227.1
		c30.5,15.9,47.8-17.3,70.4-29.2c34.5-33.2,39.8-94.3,86.3-118.1c27.9-87.6,57.1-177.9,98.3-257.6c14.6-39.8,35.8-83.6,41.2-120.8
		c14.6-15.9,0-33.2,10.6-47.8l12,12c0-10.6,17.2-19.9,6.6-27.9c-14.6-2.7-13.3-21.3-13.3-29.2c2.7-25.2,26.5-21.3,35.8-41.2l2.7,2.7
		c-8,13.3-10.6,31.9-9.3,45.1c21.3,4,13.3-22.6,29.2-25.2l-10.6-9.3l15.9-4c-6.6-18.6,6.6-30.5,10.6-50.5
		c17.3-18.6-6.6-31.9,15.9-45.1c-2.7-12,4-18.6,0-31.9c9.3-10.6,4-38.5,27.9-31.9c-10.6-18.6,5.3-34.5,19.9-47.8l-6.6-18.6
		c4-17.3,14.6-41.2,27.9-45.1c-5.3-15.9-12-27.9-18.6-47.8c-1.3-21.2,13.3-34.5,25.2-50.5c11.9-4,17.2,6.6,25.2,9.3
		c-8-18.6,31.9-17.3,19.9-41.2c-26.5-43.8,33.2-67.7,34.5-111.5c-23.9-26.6,25.2-31.9,22.6-47.8l-9.3-4c-2.7-5.3,2.7-8,6.6-11.9
		c6.6-1.3,12,0,15.9,6.6c-2.7-14.6,1.3-34.5,9.3-47.8c21.2-4,21.2-30.5,43.8-35.8c-2.6,0-6.6,1.3-9.3-2.7c1.3-4-2.7-10.6,4-13.3
		c6.6-4,9.3,6.6,12,6.6l22.6-45.1c-22.6-26.5,14.6-1.3,18.6-21.2c-4-8-11.9-10.6-18.6-13.3c39.8-21.2-23.9-37.2-9.3-63.7
		c4-10.6,17.2-23.9,27.9-15.9c-11.9,14.6-5.3,34.5,4,31.9c0-15.9,10.6,5.3,15.9-6.6l-15.9-9.3c18.6,10.6,22.6-17.3,41.2-18.6
		l6.6,11.9c13.3-14.6,0-34.5,22.6-41.2l-13.3-2.6c1.3-5.3,2.7-9.3,6.6-13.3l-22.6-13.3c4-37.2,41.2-67.7,45.1-98.3
		c19.9,2.7,5.3,23.9,12,34.5l13.3-15.9l-13.3-12c-1.3-9.3-12-19.9-2.7-29.2c10.6-5.3,5.3,11.9,15.9,9.3c1.3-4-2.7-9.3,2.7-11.9
		l4,2.7c5.3,2.7,8-2.7,11.9-6.6l4,13.3c6.6-2.7,17.2-9.3,15.9-18.6l-10.6-4c1.3-4-2.6-10.6,4-11.9c4-15.9,31.9-30.5,11.9-47.8
		c15.9-15.9,8-43.8,31.9-51.8l6.6,6.6l13.3-15.9l-6.6-6.6c10.6-10.6,9.3-37.2,31.8-31.9C2292.5,203.1,2312.4,193.8,2292.5,185.8
		L2292.5,185.8z M1450.4,1021.3l22.3-42.5l13,36.3L1450.4,1021.3L1450.4,1021.3z M1527.7,1756.6c-5.3-14.6,5.6-38.5,10.9-51.7
		c19.9-2.6,1.1,22.5,14.4,29.2C1546.3,1742,1551.5,1763,1527.7,1756.6z M1572.8,1670.3l-29.5-3.4c-19.9-17.3,40.8-31.5,34.1-55.4
		l20.8-7.3C1599.5,1628.1,1563.5,1647.7,1572.8,1670.3L1572.8,1670.3z M1977.3,718.4l-87.1,41.5c4-11.9,62.4-25.7,67.7-0.4
		L1977.3,718.4z M2028.3,513.8c4,21.2-16.4,61.1-29.7,74.4c-17.2-26.5,17.1-47.7,23-71.7l9.3-18.6c6.6,5.3,13.3,17.3,13.3,27.9
		C2038.9,521.8,2034.9,513.8,2028.3,513.8L2028.3,513.8z M2078.7,443.4c25.7-3.1-25.2,53.1-27.9,61.1
		C2045.5,493.9,2072.1,452.7,2078.7,443.4z M2082.7,552.3c5.3,1.3,1.3,8,2.7,11.9c8.7,3.2-9.3,6.2-15,2.9l-0.9,1.1
		c-0.6-0.8-1.1-1.6-1.5-2.5c-1.7-0.9-13.7-5.1-15.4-5.1c-13.3-18.6,35.5-17.7,26.2-40.3l6.6-4c8.8,15.2-25.7,32.8-17.5,49.3
		c0.8,0.4,1.6,0.9,2.4,1.3L2082.7,552.3l19.1-101.6c6.6-9.3,22-35.2,34-36.5c-15.3,68.8,8.8-0.2-34,36.5L2082.7,552.3L2082.7,552.3z
		"/>
</g>
</svg>
